{
  "asset": {
    "version": "2.0",
    "generator": "Sketchup glTF Exporter v1.2.6 by Centaur"
  },
  "scene": 0,
  "scenes": [
    {
      "nodes": [
        0
      ]
    }
  ],
  "samplers": [
    {
    }
  ],
  "nodes": [
    {
      "name": "root",
      "children": [
        1
      ]
    },
    {
      "children": [
        2,
        3,
        4
      ]
    },
    {
      "mesh": 0
    },
    {
      "mesh": 1
    },
    {
      "mesh": 2
    }
  ],
  "materials": [
    {
      "pbrMetallicRoughness": {
        "baseColorFactor": [
          1.0,
          0.9574,
          0.9574,
          1.0
        ],
        "metallicFactor": 0.1,
        "roughnessFactor": 0.9
      },
      "name": "0010_Snow",
      "doubleSided": true
    },
    {
      "pbrMetallicRoughness": {
        "baseColorFactor": [
          0.4535,
          0.0119,
          0.0119,
          1.0
        ],
        "metallicFactor": 0.1,
        "roughnessFactor": 0.9
      },
      "name": "0023_FireBrick",
      "doubleSided": true
    },
    {
      "pbrMetallicRoughness": {
        "baseColorFactor": [
          0.0,
          0.325,
          0.0,
          1.0
        ],
        "metallicFactor": 0.1,
        "roughnessFactor": 0.9
      },
      "name": "Color G07",
      "doubleSided": true
    },
    {
      "pbrMetallicRoughness": {
        "baseColorFactor": [
          0.0,
          0.0,
          0.0,
          1.0
        ],
        "metallicFactor": 0.1,
        "roughnessFactor": 0.9
      },
      "name": "Color_009",
      "doubleSided": true
    },
    {
      "pbrMetallicRoughness": {
        "baseColorFactor": [
          1.0,
          1.0,
          1.0,
          1.0
        ],
        "metallicFactor": 0.1,
        "roughnessFactor": 0.9
      },
      "name": "0128_White",
      "doubleSided": true
    },
    {
      "pbrMetallicRoughness": {
        "baseColorFactor": [
          1.0,
          0.0,
          0.0,
          1.0
        ],
        "metallicFactor": 0.1,
        "roughnessFactor": 0.9
      },
      "name": "0020_Red",
      "doubleSided": true
    },
    {
      "pbrMetallicRoughness": {
        "baseColorFactor": [
          1.0,
          1.0,
          1.0,
          1.0
        ],
        "metallicFactor": 0.1,
        "roughnessFactor": 0.9
      },
      "name": "Color M00"
    },
    {
      "pbrMetallicRoughness": {
        "baseColorFactor": [
          0.0,
          0.0,
          0.0,
          1.0
        ],
        "metallicFactor": 0.1,
        "roughnessFactor": 0.9
      },
      "name": "<Black>",
      "doubleSided": true
    },
    {
      "pbrMetallicRoughness": {
        "baseColorFactor": [
          1.0,
          0.0278,
          0.0278,
          1.0
        ],
        "metallicFactor": 0.1,
        "roughnessFactor": 0.9
      },
      "name": "Color A04"
    }
  ],
  "meshes": [
    {
      "primitives": [
        {
          "attributes": {
            "POSITION": 0,
            "NORMAL": 1
          },
          "indices": 2,
          "mode": 4,
          "material": 0
        },
        {
          "attributes": {
            "POSITION": 0,
            "NORMAL": 1
          },
          "indices": 3,
          "mode": 4,
          "material": 1
        },
        {
          "attributes": {
            "POSITION": 0,
            "NORMAL": 1
          },
          "indices": 4,
          "mode": 4,
          "material": 2
        },
        {
          "attributes": {
            "POSITION": 0,
            "NORMAL": 1
          },
          "indices": 5,
          "mode": 4,
          "material": 3
        },
        {
          "attributes": {
            "POSITION": 0,
            "NORMAL": 1
          },
          "indices": 6,
          "mode": 4,
          "material": 4
        },
        {
          "attributes": {
            "POSITION": 0,
            "NORMAL": 1
          },
          "indices": 7,
          "mode": 4,
          "material": 5
        },
        {
          "attributes": {
            "POSITION": 0,
            "NORMAL": 1
          },
          "indices": 8,
          "mode": 4,
          "material": 6
        },
        {
          "attributes": {
            "POSITION": 0,
            "NORMAL": 1
          },
          "indices": 9,
          "mode": 4,
          "material": 7
        }
      ]
    },
    {
      "primitives": [
        {
          "attributes": {
            "POSITION": 0,
            "NORMAL": 1
          },
          "indices": 10,
          "mode": 4,
          "material": 0
        },
        {
          "attributes": {
            "POSITION": 0,
            "NORMAL": 1
          },
          "indices": 11,
          "mode": 4,
          "material": 1
        },
        {
          "attributes": {
            "POSITION": 0,
            "NORMAL": 1
          },
          "indices": 12,
          "mode": 4,
          "material": 2
        },
        {
          "attributes": {
            "POSITION": 0,
            "NORMAL": 1
          },
          "indices": 13,
          "mode": 4,
          "material": 3
        },
        {
          "attributes": {
            "POSITION": 0,
            "NORMAL": 1
          },
          "indices": 14,
          "mode": 4,
          "material": 4
        },
        {
          "attributes": {
            "POSITION": 0,
            "NORMAL": 1
          },
          "indices": 15,
          "mode": 4,
          "material": 5
        },
        {
          "attributes": {
            "POSITION": 0,
            "NORMAL": 1
          },
          "indices": 16,
          "mode": 4,
          "material": 6
        },
        {
          "attributes": {
            "POSITION": 0,
            "NORMAL": 1
          },
          "indices": 17,
          "mode": 4,
          "material": 7
        }
      ]
    },
    {
      "primitives": [
        {
          "attributes": {
            "POSITION": 0,
            "NORMAL": 1
          },
          "indices": 18,
          "mode": 4,
          "material": 8
        }
      ]
    }
  ],
  "accessors": [
    {
      "bufferView": 0,
      "componentType": 5126,
      "count": 13986,
      "type": "VEC3",
      "min": [
        -7.742991938808502,
        -12.591112201603305,
        -1.7110000000003076
      ],
      "max": [
        7.742991938808505,
        12.621879737205388,
        0.019000000005652627
      ]
    },
    {
      "bufferView": 1,
      "componentType": 5126,
      "count": 13986,
      "type": "VEC3",
      "min": [
        -0.9965240590487136,
        -0.4446680200708645,
        -1.0
      ],
      "max": [
        0.9965240590487134,
        0.9965240590487133,
        1.0
      ]
    },
    {
      "bufferView": 2,
      "componentType": 5123,
      "count": 6618,
      "type": "SCALAR"
    },
    {
      "bufferView": 2,
      "componentType": 5123,
      "count": 7572,
      "type": "SCALAR",
      "byteOffset": 13236
    },
    {
      "bufferView": 2,
      "componentType": 5123,
      "count": 447,
      "type": "SCALAR",
      "byteOffset": 28380
    },
    {
      "bufferView": 2,
      "componentType": 5123,
      "count": 1008,
      "type": "SCALAR",
      "byteOffset": 29274
    },
    {
      "bufferView": 2,
      "componentType": 5123,
      "count": 870,
      "type": "SCALAR",
      "byteOffset": 31290
    },
    {
      "bufferView": 2,
      "componentType": 5123,
      "count": 426,
      "type": "SCALAR",
      "byteOffset": 33030
    },
    {
      "bufferView": 2,
      "componentType": 5123,
      "count": 3132,
      "type": "SCALAR",
      "byteOffset": 33882
    },
    {
      "bufferView": 2,
      "componentType": 5123,
      "count": 705,
      "type": "SCALAR",
      "byteOffset": 40146
    },
    {
      "bufferView": 2,
      "componentType": 5123,
      "count": 4890,
      "type": "SCALAR",
      "byteOffset": 41556
    },
    {
      "bufferView": 2,
      "componentType": 5123,
      "count": 7572,
      "type": "SCALAR",
      "byteOffset": 51336
    },
    {
      "bufferView": 2,
      "componentType": 5123,
      "count": 447,
      "type": "SCALAR",
      "byteOffset": 66480
    },
    {
      "bufferView": 2,
      "componentType": 5123,
      "count": 1008,
      "type": "SCALAR",
      "byteOffset": 67374
    },
    {
      "bufferView": 2,
      "componentType": 5123,
      "count": 870,
      "type": "SCALAR",
      "byteOffset": 69390
    },
    {
      "bufferView": 2,
      "componentType": 5123,
      "count": 426,
      "type": "SCALAR",
      "byteOffset": 71130
    },
    {
      "bufferView": 2,
      "componentType": 5123,
      "count": 4860,
      "type": "SCALAR",
      "byteOffset": 71982
    },
    {
      "bufferView": 2,
      "componentType": 5123,
      "count": 705,
      "type": "SCALAR",
      "byteOffset": 81702
    },
    {
      "bufferView": 2,
      "componentType": 5123,
      "count": 192,
      "type": "SCALAR",
      "byteOffset": 83112
    }
  ],
  "bufferViews": [
    {
      "buffer": 0,
      "byteLength": 167832,
      "target": 34962,
      "byteStride": 12
    },
    {
      "buffer": 0,
      "byteOffset": 167832,
      "byteLength": 167832,
      "target": 34962,
      "byteStride": 12
    },
    {
      "buffer": 0,
      "byteOffset": 335664,
      "byteLength": 83496,
      "target": 34963
    }
  ],
  "buffers": [
    {
      "uri": "data:application/octet-stream;base64,",
      "byteLength": 419160
    }
  ]
}